<?xml version="1.0" standalone="no"?>
<!DOCTYPE svg PUBLIC "-//W3C//DTD SVG 20010904//EN"
 "http://www.w3.org/TR/2001/REC-SVG-20010904/DTD/svg10.dtd">
<svg version="1.0" xmlns="http://www.w3.org/2000/svg"
 width="512.000000pt" height="512.000000pt" viewBox="0 0 512.000000 512.000000"
 preserveAspectRatio="xMidYMid meet">
<metadata>
Created by potrace 1.14, written by Peter Selinger 2001-2017
</metadata>
<g transform="translate(0.000000,512.000000) scale(0.100000,-0.100000)"
fill="#000000" stroke="none">
<path d="M415 5110 c-22 -5 -60 -16 -85 -25 -150 -53 -285 -212 -319 -373 -8
-38 -11 -659 -11 -2155 0 -2299 -4 -2151 57 -2277 35 -72 151 -188 223 -223
126 -61 -22 -57 2277 -57 1496 0 2117 3 2155 11 189 39 358 208 397 397 16 75
16 4229 0 4304 -35 167 -166 316 -335 380 l-59 23 -2130 1 c-1172 1 -2148 -2
-2170 -6z m837 -1791 c113 -24 179 -83 198 -175 27 -131 -41 -238 -185 -289
-76 -27 -232 -23 -360 10 -55 14 -103 25 -108 25 -14 0 -83 -159 -107 -243
-42 -154 -42 -367 1 -467 26 -60 91 -122 147 -138 56 -17 189 -15 253 4 91 27
171 74 240 141 l66 64 7 87 c24 292 133 593 280 775 149 182 388 251 502 144
66 -62 69 -173 8 -291 -37 -72 -146 -212 -265 -341 -55 -60 -135 -150 -176
-199 l-76 -90 6 -82 c9 -146 65 -210 181 -207 87 3 167 45 250 133 36 38 68
80 70 92 3 13 16 121 30 242 14 120 31 224 37 232 6 8 34 21 62 29 129 38 191
7 207 -105 12 -82 7 -118 -41 -307 -65 -255 -63 -322 11 -338 100 -22 185 84
246 308 21 78 25 112 24 225 0 102 3 139 16 163 21 41 85 68 164 70 51 1 65
-2 83 -20 34 -33 28 -170 -17 -399 -46 -234 -55 -319 -33 -327 27 -11 75 23
175 123 l97 97 22 92 c12 51 33 117 46 147 21 46 23 57 11 66 -7 7 -27 33 -44
58 -23 35 -30 57 -30 95 0 42 5 54 34 83 31 31 39 34 92 34 40 0 69 -6 90 -19
35 -22 90 -99 99 -142 14 -62 93 -63 227 -3 76 34 84 36 107 23 14 -8 41 -44
59 -79 40 -78 41 -69 -28 -314 -52 -187 -61 -252 -35 -262 21 -9 71 26 142 98
58 59 63 68 77 135 53 258 223 449 440 493 99 20 211 -4 258 -57 69 -75 62
-206 -14 -289 -50 -54 -98 -82 -229 -134 -194 -76 -182 -68 -176 -117 10 -88
59 -124 178 -131 134 -8 238 40 374 172 38 37 76 65 84 64 13 -3 16 -18 16
-68 0 -86 -30 -146 -114 -231 -112 -113 -266 -169 -461 -170 -147 0 -226 26
-292 99 -19 21 -37 45 -40 53 -3 10 -23 -3 -64 -40 -121 -111 -273 -143 -354
-74 -95 80 -110 290 -35 507 18 55 33 101 32 102 -1 1 -24 -2 -52 -6 -27 -4
-64 -6 -81 -3 -36 6 -32 15 -65 -130 -19 -88 -21 -117 -16 -260 3 -88 1 -170
-3 -183 -21 -55 -138 -103 -201 -82 -36 12 -49 40 -61 134 l-11 85 -28 -34
c-18 -21 -71 -56 -154 -98 -109 -55 -133 -64 -180 -64 -74 0 -104 24 -131 103
l-21 62 -28 -40 c-34 -49 -105 -103 -159 -120 -50 -16 -194 -8 -259 15 -47 17
-104 62 -124 99 -10 18 -13 17 -54 -16 -105 -83 -198 -114 -314 -105 -143 13
-246 66 -310 163 l-36 54 -47 -50 c-213 -226 -692 -240 -906 -25 -101 101
-142 232 -132 420 7 124 31 246 71 350 33 88 105 225 146 276 l31 39 -35 53
c-48 72 -73 150 -59 183 17 36 47 30 105 -23 29 -27 63 -58 77 -70 l26 -23 52
39 c143 108 334 154 494 120z"/>
<path d="M1025 3110 c-56 -22 -131 -79 -118 -90 29 -28 247 -40 293 -17 43 22
40 95 -5 115 -38 17 -113 14 -170 -8z"/>
<path d="M1924 3078 c-79 -69 -153 -218 -194 -390 -11 -45 -18 -83 -16 -85 2
-2 19 20 38 49 19 29 79 107 131 173 112 140 140 188 135 242 -3 33 -7 38 -30
41 -18 2 -37 -7 -64 -30z"/>
<path d="M4502 2584 c-35 -24 -91 -154 -92 -211 0 -20 161 88 181 121 25 41
25 82 0 96 -28 15 -63 12 -89 -6z"/>
</g>
</svg>
